<?xml version="1.0" standalone="no"?>
<!DOCTYPE svg PUBLIC "-//W3C//DTD SVG 20010904//EN"
 "http://www.w3.org/TR/2001/REC-SVG-20010904/DTD/svg10.dtd">
<svg version="1.0" xmlns="http://www.w3.org/2000/svg"
 width="225.000000pt" height="225.000000pt" viewBox="0 0 225.000000 225.000000"
 preserveAspectRatio="xMidYMid meet">

<g transform="translate(0.000000,225.000000) scale(0.100000,-0.100000)"
fill="#000000" stroke="none">
<path d="M1254 1711 c-22 -10 -56 -37 -76 -60 -33 -38 -38 -41 -87 -41 -60 0
-188 -27 -197 -41 -12 -20 7 -21 64 -5 32 9 84 16 115 16 l56 0 -14 -41 c-56
-156 48 -284 202 -249 29 6 57 19 62 28 8 13 13 11 40 -16 33 -32 102 -58 123
-46 7 5 9 -1 4 -20 -8 -31 14 -78 46 -100 29 -20 108 -21 156 0 52 21 90 60
118 119 29 60 30 106 4 162 -34 76 -111 106 -205 79 -50 -15 -58 -15 -83 -2
-15 9 -35 18 -44 22 -9 3 -19 19 -22 35 -18 93 -20 85 21 101 58 23 110 30
133 18 24 -13 46 -53 55 -103 9 -44 32 -45 27 -1 -5 39 -35 106 -56 123 -22
18 -130 10 -175 -14 -33 -16 -34 -16 -60 8 -14 13 -36 30 -48 36 -33 17 -113
13 -159 -8z"/>
<path d="M572 1670 c-55 -34 -75 -94 -70 -208 3 -60 8 -97 16 -100 7 -2 -5
-27 -30 -63 -53 -78 -88 -189 -88 -278 l0 -68 -42 -7 c-61 -9 -108 -26 -108
-38 0 -6 11 -8 28 -4 15 3 48 9 74 12 l47 7 11 -42 c6 -23 13 -48 16 -56 4 -9
-9 -21 -35 -35 -23 -11 -41 -25 -41 -30 0 -14 14 -12 56 7 34 17 36 17 45 0
14 -24 31 -21 27 6 -2 18 2 23 25 25 15 2 27 9 27 18 0 11 -9 13 -39 8 l-38
-6 -12 45 c-6 25 -11 48 -11 51 0 3 25 6 55 6 74 0 70 17 -5 26 l-60 7 0 41
c1 112 52 250 123 331 43 50 45 57 15 53 -19 -3 -23 3 -31 42 -11 59 -3 140
17 179 24 45 59 65 117 63 50 -1 146 -38 180 -68 13 -12 19 -12 25 -3 17 28
-112 90 -200 96 -50 3 -67 0 -94 -17z"/>
<path d="M1805 1133 c16 -40 26 -85 23 -106 -2 -18 -11 -23 -48 -27 -57 -6
-50 -26 8 -22 l42 4 0 -39 c0 -71 -8 -83 -51 -83 -22 0 -39 -4 -39 -10 0 -5
14 -10 30 -10 36 0 37 -6 8 -65 -24 -49 -25 -50 -64 -35 -42 16 -56 -6 -15
-23 31 -13 31 -13 11 -32 -11 -10 -20 -22 -20 -27 0 -15 27 -8 45 12 25 28 45
25 103 -15 34 -23 53 -31 58 -23 8 12 -23 39 -78 68 l-38 20 27 55 c15 30 32
55 38 55 5 -1 27 -7 47 -14 21 -7 40 -11 43 -8 13 13 2 22 -39 34 -50 15 -49
14 -40 86 l7 54 68 -7 c46 -5 69 -4 69 4 0 5 -17 13 -37 16 -21 3 -52 8 -70
11 -28 4 -33 10 -38 42 -12 66 -26 102 -42 102 -10 0 -13 -5 -8 -17z"/>
<path d="M739 943 c-8 -9 -14 -35 -14 -58 0 -23 6 -49 14 -58 16 -20 64 -22
80 -4 28 35 21 107 -13 129 -19 13 -53 9 -67 -9z"/>
<path d="M1466 945 c-23 -24 -28 -52 -16 -90 13 -38 50 -56 79 -38 46 29 28
143 -23 143 -13 0 -31 -7 -40 -15z"/>
<path d="M1080 835 c-26 -31 16 -93 44 -65 7 7 5 10 -6 10 -17 0 -32 26 -22
41 3 5 21 9 40 9 52 0 58 -35 9 -53 -19 -8 4 -19 24 -12 26 8 38 50 21 70 -16
20 -94 20 -110 0z"/>
<path d="M497 724 c-3 -4 -2 -15 3 -24 8 -14 4 -20 -19 -30 -33 -13 -78 -57
-68 -66 3 -4 27 8 53 25 26 17 53 31 60 31 7 0 34 -14 59 -31 107 -72 290
-109 550 -109 212 0 450 41 463 79 5 15 2 15 -115 -18 -200 -55 -606 -44 -782
21 -55 21 -131 63 -131 73 0 3 12 10 27 16 40 15 15 32 -27 18 -28 -10 -35
-10 -45 4 -13 18 -18 20 -28 11z"/>
</g>
</svg>
